<?xml version="1.0" encoding="UTF-8" standalone="no"?>
<!DOCTYPE svg PUBLIC "-//W3C//DTD SVG 1.1//EN" "http://www.w3.org/Graphics/SVG/1.1/DTD/svg11.dtd">
<svg width="100%" height="100%" viewBox="0 0 306 11" version="1.1" xmlns="http://www.w3.org/2000/svg" xmlns:xlink="http://www.w3.org/1999/xlink" xml:space="preserve" xmlns:serif="http://www.serif.com/" style="fill-rule:evenodd;clip-rule:evenodd;stroke-linejoin:round;stroke-miterlimit:2;">
    <g transform="matrix(1,0,0,1,-87.4051,-264.803)">
        <g transform="matrix(1,0,0,1,0,-540)">
            <g transform="matrix(1,0,0,1,9.80324,0.356528)">
                <path d="M77.614,810C77.791,808.391 79.953,804.497 82.393,804.455C89.137,804.339 103.974,805.46 116.057,805.579C151.58,805.93 205.563,807.429 243.932,807.719C252.582,807.785 297.12,804.786 304.282,804.837C343.266,805.117 367.744,805.735 380.824,806.596C382.128,806.681 382.951,808.961 382.766,810C382.581,811.039 381.103,812.805 379.716,812.832C370.52,813.015 347.509,814.336 327.318,814.097C308.655,813.875 293.1,812.099 276.587,812.109C252.759,812.123 195.648,811.761 158.85,812.021C143.974,812.126 139.209,813.848 129.145,814.037C116.033,814.284 101.294,814.912 90.097,814.834C87.034,814.813 83.63,814.132 81.328,814.108C79.248,814.086 77.436,811.609 77.614,810Z" style="fill:rgb(60,60,60);"/>
            </g>
        </g>
    </g>
</svg>
